<!DOCTYPE svg PUBLIC "-//W3C//DTD SVG 1.1//EN" "http://www.w3.org/Graphics/SVG/1.1/DTD/svg11.dtd">
<!-- Uploaded to: SVG Repo, www.svgrepo.com, Transformed by: SVG Repo Mixer Tools -->
<svg fill="#94a3b8" width="64px" height="64px" viewBox="0 0 24 24" xmlns="http://www.w3.org/2000/svg">
<g id="SVGRepo_bgCarrier" stroke-width="0"/>
<g id="SVGRepo_tracerCarrier" stroke-linecap="round" stroke-linejoin="round"/>
<g id="SVGRepo_iconCarrier">
<path d="M16.29,14.29,12,18.59l-4.29-4.3a1,1,0,0,0-1.42,1.42l5,5a1,1,0,0,0,1.42,0l5-5a1,1,0,0,0-1.42-1.42ZM7.71,9.71,12,5.41l4.29,4.3a1,1,0,0,0,1.42,0,1,1,0,0,0,0-1.42l-5-5a1,1,0,0,0-1.42,0l-5,5A1,1,0,0,0,7.71,9.71Z"/>
</g>
</svg>